<svg width="24" height="24" viewBox="0 0 24 24" fill="none" xmlns="http://www.w3.org/2000/svg">
<path d="M20.6437 17.5861C20.3385 18.2848 19.9772 18.928 19.5586 19.5193C18.9881 20.3255 18.5209 20.8835 18.1609 21.1934C17.6027 21.702 17.0048 21.9625 16.3644 21.9773C15.9047 21.9773 15.3504 21.8477 14.705 21.5847C14.0576 21.323 13.4626 21.1934 12.9186 21.1934C12.348 21.1934 11.7361 21.323 11.0815 21.5847C10.426 21.8477 9.89793 21.9847 9.49417 21.9983C8.88012 22.0242 8.26806 21.7563 7.65713 21.1934C7.2672 20.8563 6.77947 20.2786 6.1952 19.4601C5.56832 18.586 5.05294 17.5725 4.64918 16.417C4.21677 15.1689 4 13.9603 4 12.7902C4 11.4498 4.29226 10.2938 4.87766 9.32509C5.33773 8.54696 5.94978 7.93316 6.71581 7.48255C7.48185 7.03195 8.30955 6.80233 9.20091 6.78764C9.68863 6.78764 10.3282 6.93714 11.123 7.23096C11.9156 7.52576 12.4245 7.67526 12.6476 7.67526C12.8144 7.67526 13.3798 7.50045 14.3382 7.15194C15.2445 6.82874 16.0094 6.69492 16.636 6.74764C18.334 6.88343 19.6097 7.54675 20.4581 8.74177C18.9395 9.6536 18.1883 10.9307 18.2032 12.5691C18.2169 13.8452 18.6841 14.9071 19.6022 15.7503C20.0183 16.1417 20.483 16.4441 21 16.6589C20.8879 16.9812 20.7695 17.2898 20.6437 17.5861V17.5861ZM16.7494 2.40011C16.7494 3.40034 16.3806 4.33425 15.6456 5.19867C14.7586 6.22629 13.6857 6.8201 12.5223 6.7264C12.5075 6.60641 12.4989 6.48011 12.4989 6.3474C12.4989 5.38718 12.9207 4.35956 13.6698 3.51934C14.0438 3.09392 14.5194 2.74019 15.0962 2.45801C15.6718 2.18005 16.2162 2.02632 16.7282 2C16.7431 2.13371 16.7494 2.26744 16.7494 2.4001V2.40011Z" fill="black"/>
</svg>
