<svg width="20" height="18" viewBox="0 0 20 18" fill="none" xmlns="http://www.w3.org/2000/svg">
  <defs>
    <linearGradient
      id="paint0_linear_537_12995"
      x1="0.607039"
      y1="18.3933"
      x2="19.3929"
      y2="-0.392604"
      gradientUnits="userSpaceOnUse"
    >
      <stop stop-color="#9945FF" />
      <stop offset="0.2" stop-color="#7962E7" />
      <stop offset="1" stop-color="#00D18C" />
    </linearGradient>
  </defs>
  <path
    fill-rule="evenodd"
    clip-rule="evenodd"
    d="M3.43571 13.726C3.50026 13.655 3.57886 13.5984 3.66655 13.5595C3.75415 13.5207 3.84904 13.5006 3.94488 13.5006L19.6552 13.5134C19.7222 13.5136 19.7876 13.5331 19.8436 13.5697C19.8996 13.6063 19.9438 13.6584 19.9707 13.7196C19.9977 13.7809 20.0063 13.8487 19.9955 13.9147C19.9847 13.9807 19.9549 14.0421 19.9098 14.0916L16.5643 17.7753C16.4997 17.8463 16.421 17.903 16.3333 17.9418C16.2456 17.9807 16.1507 18.0007 16.0547 18.0007L0.344742 17.9879C0.27784 17.9877 0.212411 17.9682 0.156412 17.9316C0.100412 17.895 0.0562503 17.8428 0.029292 17.7816C0.00233376 17.7204 -0.00627258 17.6526 0.00453645 17.5866C0.0153369 17.5206 0.0450897 17.4592 0.0901601 17.4097L3.43571 13.726ZM19.9098 10.6594C19.9549 10.7089 19.9847 10.7704 19.9955 10.8364C20.0063 10.9024 19.9977 10.9702 19.9707 11.0314C19.9438 11.0926 19.8996 11.1447 19.8436 11.1813C19.7876 11.2179 19.7222 11.2374 19.6552 11.2376L3.9453 11.2505C3.84939 11.2505 3.7545 11.2304 3.66672 11.1916C3.57895 11.1527 3.50026 11.096 3.43571 11.025L0.0901601 7.33916C0.0450897 7.2897 0.0153369 7.22824 0.00453645 7.16224C-0.00627258 7.09623 0.00233376 7.02843 0.029292 6.96723C0.0562503 6.90603 0.100412 6.85391 0.156412 6.81731C0.212411 6.78071 0.27784 6.76116 0.344742 6.76099L16.0551 6.74813C16.151 6.74822 16.2458 6.76828 16.3335 6.80711C16.4212 6.84594 16.4998 6.9026 16.5643 6.97357L19.9098 10.6594ZM3.43571 0.225438C3.50026 0.154489 3.57886 0.0977866 3.66655 0.058965C3.75415 0.020152 3.84904 6.00025e-05 3.94488 0L19.6552 0.0128578C19.7222 0.0129949 19.7876 0.0325556 19.8436 0.0691657C19.8996 0.105776 19.9438 0.157858 19.9707 0.219086C19.9977 0.280323 20.0063 0.348066 19.9955 0.414086C19.9847 0.480106 19.9549 0.541565 19.9098 0.591024L16.5643 4.27475C16.4997 4.34572 16.421 4.40247 16.3333 4.4413C16.2456 4.48013 16.1507 4.50018 16.0547 4.50018L0.344742 4.48733C0.27784 4.48716 0.212411 4.46761 0.156412 4.43101C0.100412 4.39441 0.0562503 4.34229 0.029292 4.28109C0.00233376 4.21989 -0.00627258 4.15209 0.00453645 4.08608C0.0153369 4.02008 0.0450897 3.95862 0.0901601 3.90916L3.43571 0.225438Z"
    fill="url(#paint0_linear_537_12995)"
  />
</svg>
